<mxfile host="65bd71144e">
    <diagram id="YCiJ_z5PDF9Ii4xzWJDN" name="Page-1">
        <mxGraphModel dx="610" dy="475" grid="1" gridSize="10" guides="1" tooltips="1" connect="1" arrows="1" fold="1" page="1" pageScale="1" pageWidth="850" pageHeight="1100" math="0" shadow="0">
            <root>
                <mxCell id="0"/>
                <mxCell id="1" parent="0"/>
                <mxCell id="4" style="edgeStyle=none;html=1;exitX=0;exitY=0;exitDx=0;exitDy=15;exitPerimeter=0;entryX=0;entryY=0;entryDx=0;entryDy=41;entryPerimeter=0;" edge="1" parent="1" source="2" target="3">
                    <mxGeometry relative="1" as="geometry"/>
                </mxCell>
                <mxCell id="2" value="Module" style="shape=module;align=left;spacingLeft=20;align=center;verticalAlign=top;direction=west;" vertex="1" parent="1">
                    <mxGeometry x="120" y="130" width="100" height="50" as="geometry"/>
                </mxCell>
                <mxCell id="3" value="package" style="shape=folder;fontStyle=1;spacingTop=10;tabWidth=40;tabHeight=14;tabPosition=left;html=1;" vertex="1" parent="1">
                    <mxGeometry x="370" y="120" width="70" height="50" as="geometry"/>
                </mxCell>
                <mxCell id="5" value="Entity" style="whiteSpace=wrap;html=1;align=center;" vertex="1" parent="1">
                    <mxGeometry x="530" y="380" width="100" height="40" as="geometry"/>
                </mxCell>
                <mxCell id="6" value="Entity" style="rounded=1;arcSize=10;whiteSpace=wrap;html=1;align=center;" vertex="1" parent="1">
                    <mxGeometry x="210" y="360" width="100" height="40" as="geometry"/>
                </mxCell>
                <mxCell id="7" value="Entity" style="rounded=1;arcSize=10;whiteSpace=wrap;html=1;align=center;" vertex="1" parent="1">
                    <mxGeometry x="300" y="460" width="100" height="40" as="geometry"/>
                </mxCell>
                <mxCell id="8" value="Entity" style="rounded=1;arcSize=10;whiteSpace=wrap;html=1;align=center;" vertex="1" parent="1">
                    <mxGeometry x="110" y="520" width="100" height="40" as="geometry"/>
                </mxCell>
            </root>
        </mxGraphModel>
    </diagram>
</mxfile>